<svg width="800" height="400"><g transform="translate(200, 0)"><path class="link" d="M0,200C200,200 200,40 400,40"></path><path class="link" d="M0,200C200,200 200,120 400,120"></path><path class="link" d="M0,200C200,200 200,200 400,200"></path><path class="link" d="M0,200C200,200 200,280 400,280"></path><path class="link" d="M0,200C200,200 200,360 400,360"></path><g class="node" transform="translate(0,200)"><circle r="4.5"></circle><text dx="-8" dy="3" text-anchor="end">game</text></g><g class="node" transform="translate(400,40)"><circle r="4.5"></circle><text dx="-8" dy="3" text-anchor="end">event1</text></g><g class="node" transform="translate(400,120)"><circle r="4.5"></circle><text dx="-8" dy="3" text-anchor="end">event2</text></g><g class="node" transform="translate(400,200)"><circle r="4.5"></circle><text dx="-8" dy="3" text-anchor="end">event3</text></g><g class="node" transform="translate(400,280)"><circle r="4.5"></circle><text dx="-8" dy="3" text-anchor="end">event4</text></g><g class="node" transform="translate(400,360)"><circle r="4.5"></circle><text dx="-8" dy="3" text-anchor="end">...</text></g></g></svg>